<?xml version="1.0" encoding="utf-8"?>
<svg version="1.1"
     xmlns="http://www.w3.org/2000/svg"
     xmlns:xlink="http://www.w3.org/1999/xlink"
     x="0px" y="0px"
     viewBox="0 0 1024 1024"
     width="200" height="200">

  <!-- 把原来的 120~160 / 430~470 坐标系映射到 0~1024 × 0~1024 -->
  <!-- 先平移到 (0,0)，再按 25.6 放大 -->
  <g transform="scale(25.6) translate(-120 -430)">
    <path fill="#444444" d="M149,440h-6.4l-1.7-3.4c-0.2-0.3-0.5-0.6-0.9-0.6h-6
        c-0.4,0-0.7,0.2-0.9,0.6l-1.7,3.4H125c-0.6,0-1,0.4-1,1s0.4,1,1,1h20v20h-16v-17
        c0-0.6-0.4-1-1-1s-1,0.4-1,1v18c0,0.6,0.4,1,1,1h18c0.6,0,1-0.4,1-1v-21h2
        c0.6,0,1-0.4,1-1S149.6,440,149,440z M134.6,438h4.8l1,2h-6.8L134.6,438z"/>
    <path fill="#444444" d="M135,458v-10c0-0.6-0.4-1-1-1s-1,0.4-1,1v10c0,0.6,0.4,1,1,1
        S135,458.6,135,458z"/>
    <path fill="#444444" d="M141,458v-10c0-0.6-0.4-1-1-1s-1,0.4-1,1v10c0,0.6,0.4,1,1,1
        S141,458.6,141,458z"/>
  </g>
</svg>
