<?xml version="1.0" encoding="utf-8"?>
<!-- Generator: Adobe Illustrator 18.1.1, SVG Export Plug-In . SVG Version: 6.00 Build 0)  -->
<!DOCTYPE svg PUBLIC "-//W3C//DTD SVG 1.1//EN" "http://www.w3.org/Graphics/SVG/1.1/DTD/svg11.dtd">
<svg version="1.1" id="Layer_1" xmlns="http://www.w3.org/2000/svg" xmlns:xlink="http://www.w3.org/1999/xlink" x="0px" y="0px"
	 width="800px" height="600px" viewBox="0 0 800 600" enable-background="new 0 0 800 600" xml:space="preserve">
<g>
	<path fill="#444444" d="M150,139h-26c-0.6,0-1,0.4-1,1s0.4,1,1,1h25v18h-24v-15c0-0.6-0.4-1-1-1s-1,0.4-1,1v16c0,0.6,0.4,1,1,1h26
		c0.6,0,1-0.4,1-1v-20C151,139.4,150.6,139,150,139z"/>
	<circle fill="#444444" cx="145" cy="145" r="2"/>
	<path fill="#444444" d="M135.7,147.3c-0.4-0.4-1-0.4-1.4,0l-8,8c-0.4,0.4-0.4,1,0,1.4c0.2,0.2,0.5,0.3,0.7,0.3
		c0.3,0,0.5-0.1,0.7-0.3l7.3-7.3l2.3,2.3c0.4,0.4,1,0.4,1.4,0c0.4-0.4,0.4-1,0-1.4L135.7,147.3z"/>
	<path fill="#444444" d="M141.3,151.3l-4,4c-0.4,0.4-0.4,1,0,1.4c0.4,0.4,1,0.4,1.4,0l3.3-3.3l3.3,3.3c0.2,0.2,0.5,0.3,0.7,0.3
		c0.3,0,0.5-0.1,0.7-0.3c0.4-0.4,0.4-1,0-1.4l-4-4C142.3,150.9,141.7,150.9,141.3,151.3z"/>
</g>
<path fill="#444444" d="M224.9,159.5l-2.9-4.8V148c0-5.2-4-9.4-9-9.9V137c0-0.6-0.4-1-1-1s-1,0.4-1,1v2c0,0.6,0.4,1,1,1
	c4.4,0,8,3.6,8,8v7c0,0.2,0,0.4,0.1,0.5l2.1,3.5h-20.5l2.1-3.5c0.1-0.2,0.1-0.3,0.1-0.5v-7c0-3.1,1.8-5.9,4.6-7.2
	c0.5-0.2,0.7-0.8,0.5-1.3c-0.2-0.5-0.8-0.7-1.3-0.5c-3.5,1.6-5.7,5.2-5.7,9v6.7l-2.9,4.8c-0.2,0.3-0.2,0.7,0,1
	c0.2,0.3,0.5,0.5,0.9,0.5h8.1c0.4,1.7,2,3,3.9,3c1.9,0,3.4-1.3,3.9-3h8.1c0.4,0,0.7-0.2,0.9-0.5C225,160.2,225,159.8,224.9,159.5z
	 M212,162c-0.7,0-1.4-0.4-1.7-1h3.4C213.4,161.6,212.7,162,212,162z"/>
<g>
	<path fill="#444444" d="M301,150c0-2-1.4-3.6-3.3-3.9l-0.3-0.8c1.1-1.6,0.9-3.7-0.4-5.1c-1.3-1.3-3.6-1.5-5.1-0.4l-0.8-0.3
		c-0.3-1.9-2-3.3-3.9-3.3s-3.6,1.4-3.9,3.3l-0.8,0.3c-1.6-1.1-3.7-0.9-5.1,0.4c-0.8,0.8-1.2,1.8-1.2,2.8c0,0.8,0.3,1.6,0.7,2.3
		l-0.3,0.8c-1.9,0.3-3.3,2-3.3,3.9l0,0l0,0c0,2,1.4,3.6,3.3,3.9l0.3,0.8c-1.1,1.6-0.9,3.7,0.4,5.1c1.3,1.3,3.6,1.5,5.1,0.4l0.8,0.3
		c0.3,1.9,2,3.3,3.9,3.3s3.6-1.4,3.9-3.3l0.8-0.3c1.6,1.1,3.7,0.9,5.1-0.4c0.8-0.8,1.2-1.8,1.2-2.8c0-0.8-0.3-1.6-0.7-2.3l0.3-0.8
		C299.6,153.6,301,152,301,150L301,150L301,150z M297,152c-0.4,0-0.8,0.2-0.9,0.6l-0.8,1.9c-0.2,0.4-0.1,0.8,0.2,1.1
		c0.4,0.4,0.6,0.9,0.6,1.4c0,0.5-0.2,1-0.6,1.4c-0.8,0.8-2,0.8-2.8,0c-0.3-0.3-0.7-0.4-1.1-0.2l-1.9,0.8c-0.4,0.2-0.6,0.5-0.6,0.9
		c0,1.1-0.9,2-2,2s-2-0.9-2-2c0-0.4-0.2-0.8-0.6-0.9l-2-0.8c-0.4-0.2-0.8-0.1-1.1,0.2c-0.8,0.8-2.1,0.8-2.8,0c-0.8-0.8-0.8-2,0-2.8
		c0.3-0.3,0.4-0.7,0.2-1.1l-0.8-1.9c-0.2-0.4-0.5-0.6-0.9-0.6c-1.1,0-2-0.9-2-2l0,0l0,0c0-1.1,0.9-2,2-2c0.4,0,0.8-0.2,0.9-0.6
		l0.8-1.9c0.2-0.4,0.1-0.8-0.2-1.1c-0.4-0.4-0.6-0.9-0.6-1.4c0-0.5,0.2-1,0.6-1.4c0.8-0.8,2-0.8,2.8,0c0.3,0.3,0.7,0.4,1.1,0.2
		l1.9-0.8c0.4-0.2,0.6-0.5,0.6-0.9c0-1.1,0.9-2,2-2s2,0.9,2,2c0,0.4,0.2,0.8,0.6,0.9l2,0.8c0.4,0.2,0.8,0.1,1.1-0.2
		c0.8-0.8,2.1-0.8,2.8,0c0.8,0.8,0.8,2,0,2.8c-0.3,0.3-0.4,0.7-0.2,1.1l0.8,1.9c0.2,0.4,0.5,0.6,0.9,0.6c1.1,0,2,0.9,2,2l0,0l0,0
		C299,151.1,298.1,152,297,152z"/>
	<path fill="#444444" d="M287,145c-2.8,0-5,2.2-5,5s2.2,5,5,5c0.6,0,1-0.4,1-1s-0.4-1-1-1c-1.7,0-3-1.3-3-3s1.3-3,3-3s3,1.3,3,3
		c0,0.6-0.2,1.1-0.5,1.6c-0.3,0.5-0.2,1.1,0.3,1.4c0.5,0.3,1.1,0.2,1.4-0.3c0.5-0.8,0.8-1.8,0.8-2.7C292,147.2,289.8,145,287,145z"
		/>
</g>
<path fill="#444444" d="M375.7,149.8l-13-13c-0.4-0.4-1-0.4-1.4,0l-13,13c-0.4,0.4-0.4,1,0,1.4c0.4,0.4,1,0.4,1.4,0l12.3-12.3l8,8
	c0,0,0,0,0,0.1v15h-16v-10c0-0.6-0.4-1-1-1c-0.6,0-1,0.4-1,1v11c0,0.6,0.4,1,1,1h18c0.6,0,1-0.4,1-1v-14.1l2.3,2.3
	c0.2,0.2,0.5,0.3,0.7,0.3c0.3,0,0.5-0.1,0.7-0.3C376.1,150.8,376.1,150.2,375.7,149.8z"/>
<g>
	<path fill="#444444" d="M434,136c-6.1,0-11,4.9-11,11s4.9,11,11,11s11-4.9,11-11S440.1,136,434,136z M434,156c-5,0-9-4-9-9s4-9,9-9
		c5,0,9,4,9,9S439,156,434,156z"/>
	<path fill="#444444" d="M450.7,162.3l-6-6c-0.4-0.4-1-0.4-1.4,0c-0.4,0.4-0.4,1,0,1.4l6,6c0.2,0.2,0.5,0.3,0.7,0.3
		c0.3,0,0.5-0.1,0.7-0.3C451.1,163.3,451.1,162.7,450.7,162.3z"/>
</g>
<g>
	<path fill="#444444" d="M512,164c-3.7,0-7.3-1.5-9.9-4.1c-4.3-4.3-5.3-10.9-2.6-16.3c0.3-0.5,0.9-0.7,1.3-0.4
		c0.5,0.3,0.7,0.9,0.4,1.3c-2.4,4.7-1.5,10.3,2.2,14c2.3,2.3,5.3,3.5,8.5,3.5c3.2,0,6.2-1.2,8.5-3.5c2.3-2.3,3.5-5.3,3.5-8.5
		c0-3.2-1.2-6.2-3.5-8.5c-2.3-2.3-5.3-3.5-8.5-3.5s-6.2,1.2-8.5,3.5c-0.4,0.4-1,0.4-1.4,0c-0.4-0.4-0.4-1,0-1.4
		c2.6-2.6,6.2-4.1,9.9-4.1c3.7,0,7.3,1.5,9.9,4.1c2.6,2.6,4.1,6.2,4.1,9.9c0,3.7-1.5,7.3-4.1,9.9C519.3,162.5,515.7,164,512,164z"/>
</g>
<g>
	<path fill="#444444" d="M512,154c-1.1,0-2.1-0.4-2.8-1.2c-0.8-0.8-1.2-1.8-1.2-2.8s0.4-2.1,1.2-2.8c1.3-1.3,7.3-3.6,8.5-4.1
		c0.4-0.1,0.8-0.1,1.1,0.2c0.3,0.3,0.4,0.7,0.2,1.1c-0.5,1.2-2.8,7.2-4.1,8.5C514.1,153.6,513.1,154,512,154z M516.2,145.8
		c-2.5,1-5.1,2.2-5.6,2.8c-0.4,0.4-0.6,0.9-0.6,1.4s0.2,1,0.6,1.4c0.8,0.8,2.1,0.8,2.8,0C514,150.9,515.2,148.3,516.2,145.8z"/>
</g>
<g>
	<path fill="#444444" d="M600,162h-26c-0.6,0-1-0.4-1-1v-14c0-0.6,0.4-1,1-1c0.6,0,1,0.4,1,1v13h24v-16h-5c-0.3,0-0.5-0.1-0.7-0.3
		l-3.7-3.7h-5.2l-3.7,3.7c-0.2,0.2-0.4,0.3-0.7,0.3h-6c-0.6,0-1-0.4-1-1s0.4-1,1-1h5.6l3.7-3.7c0.2-0.2,0.4-0.3,0.7-0.3h6
		c0.3,0,0.5,0.1,0.7,0.3l3.7,3.7h5.6c0.6,0,1,0.4,1,1v18C601,161.6,600.6,162,600,162z"/>
</g>
<g>
	<path fill="#444444" d="M587,158c-3.3,0-6-2.7-6-6s2.7-6,6-6s6,2.7,6,6S590.3,158,587,158z M587,148c-2.2,0-4,1.8-4,4s1.8,4,4,4
		c2.2,0,4-1.8,4-4S589.2,148,587,148z"/>
</g>
<g>
	<g>
		<path fill="#444444" d="M675,157h-14c-0.6,0-1-0.4-1-1c0-0.6,0.4-1,1-1h13v-16h-25c-0.6,0-1-0.4-1-1c0-0.6,0.4-1,1-1h26
			c0.6,0,1,0.4,1,1v18C676,156.6,675.6,157,675,157z"/>
	</g>
	<g>
		<path fill="#444444" d="M653,157h-4c-0.6,0-1-0.4-1-1v-14c0-0.6,0.4-1,1-1c0.6,0,1,0.4,1,1v13h3c0.6,0,1,0.4,1,1
			C654,156.6,653.6,157,653,157z"/>
	</g>
	<g>
		<path fill="#444444" d="M653,163c-0.2,0-0.3,0-0.4-0.1c-0.3-0.2-0.6-0.5-0.6-0.9v-6c0-0.6,0.4-1,1-1c0.6,0,1,0.4,1,1v4l6.4-4.8
			c0.4-0.3,1.1-0.2,1.4,0.2c0.3,0.4,0.2,1.1-0.2,1.4l-8,6C653.4,162.9,653.2,163,653,163z"/>
	</g>
</g>
<g>
	<g>
		<path fill="#444444" d="M660.6,227.4c-0.3,0-0.5-0.1-0.7-0.3l-4.2-4.2c-0.2-0.2-0.3-0.4-0.3-0.7c0-0.3,0.1-0.5,0.3-0.7l2.4-2.4
			c0.8-0.8,0.8-2,0-2.8l-2.8-2.8c-0.7-0.7-2-0.7-2.8,0c0,0-0.1,0.1-0.1,0.1c-0.1,0.1-2.9,2.1-2.4,6.2c0.1,0.5-0.3,1-0.9,1.1
			c-0.6,0.1-1-0.3-1.1-0.9c-0.6-5,2.7-7.6,3.2-8c1.5-1.4,4.1-1.4,5.5,0.1l2.8,2.8c1.5,1.5,1.5,4,0,5.6l-1.7,1.7l3.5,3.5
			c0.4,0.4,0.4,1,0,1.4C661.1,227.3,660.9,227.4,660.6,227.4z"/>
	</g>
	<g>
		<path fill="#444444" d="M655.8,232.3c-0.3,0-0.5-0.1-0.7-0.3c-2.5-2.5-4.3-4.9-5.5-7.1c-0.3-0.5-0.1-1.1,0.4-1.3
			c0.5-0.3,1.1-0.1,1.3,0.4c1.1,2.1,2.8,4.3,5.1,6.6c0.4,0.4,0.4,1,0,1.4C656.3,232.2,656,232.3,655.8,232.3z"/>
	</g>
	<g>
		<path fill="#444444" d="M668,239c-3.9,0-8.3-2.4-13-7.1c-0.4-0.4-0.4-1,0-1.4c0.4-0.4,1-0.4,1.4,0c4.5,4.5,8.8,6.8,12.3,6.4
			c3.1-0.3,4.6-2.4,4.6-2.5c0-0.1,0.1-0.1,0.1-0.1c0.4-0.4,0.6-0.9,0.6-1.4c0-0.5-0.2-1-0.6-1.4l-2.8-2.8c-0.4-0.4-0.9-0.6-1.4-0.6
			l0,0c-0.5,0-1,0.2-1.4,0.6l-2.4,2.4c-0.4,0.4-1,0.4-1.4,0l-4.2-4.2c-0.4-0.4-0.4-1,0-1.4c0.4-0.4,1-0.4,1.4,0l3.5,3.5l1.7-1.7
			c0.7-0.7,1.7-1.2,2.8-1.2l0,0c1.1,0,2,0.4,2.8,1.2l2.8,2.8c0.7,0.7,1.2,1.7,1.2,2.8c0,1-0.4,2-1.1,2.7c-0.4,0.5-2.3,2.9-6,3.3
			C668.6,239,668.3,239,668,239z"/>
	</g>
</g>
<g>
	<g>
		<path fill="#444444" d="M588.2,238c-0.3,0-0.5-0.1-0.7-0.3c-0.4-0.4-0.4-1,0-1.4l10.3-10.3h-24.1c-0.6,0-1-0.4-1-1s0.4-1,1-1h26.5
			c0.4,0,0.8,0.2,0.9,0.6c0.2,0.4,0.1,0.8-0.2,1.1l-12,12C588.8,237.9,588.5,238,588.2,238z"/>
	</g>
	<g>
		<path fill="#444444" d="M596.2,222c-0.3,0-0.5-0.1-0.7-0.3l-8-8c-0.4-0.4-0.4-1,0-1.4c0.4-0.4,1-0.4,1.4,0l8,8
			c0.4,0.4,0.4,1,0,1.4C596.8,221.9,596.5,222,596.2,222z"/>
	</g>
</g>
<g>
	<g>
		<path fill="#444444" d="M525.2,226h-26.5c-0.4,0-0.8-0.2-0.9-0.6c-0.2-0.4-0.1-0.8,0.2-1.1l12-12c0.4-0.4,1-0.4,1.4,0
			c0.4,0.4,0.4,1,0,1.4L501.2,224h24.1c0.6,0,1,0.4,1,1S525.8,226,525.2,226z"/>
	</g>
	<g>
		<path fill="#444444" d="M510.8,238c-0.3,0-0.5-0.1-0.7-0.3l-8-8c-0.4-0.4-0.4-1,0-1.4c0.4-0.4,1-0.4,1.4,0l8,8
			c0.4,0.4,0.4,1,0,1.4C511.3,237.9,511,238,510.8,238z"/>
	</g>
</g>
<g>
	<g>
		<path fill="#444444" d="M144,233h-12c-5,0-9-4-9-9c0-5,4-9,9-9s9,4,9,9c0,0.6-0.4,1-1,1s-1-0.4-1-1c0-3.9-3.1-7-7-7
			c-3.9,0-7,3.1-7,7c0,3.9,3.1,7,7,7h12c2.8,0,5-2.2,5-5s-2.2-5-5-5c-0.6,0-1-0.4-1-1s0.4-1,1-1c3.9,0,7,3.1,7,7S147.9,233,144,233z
			"/>
	</g>
</g>
<g>
	<path fill="#444444" d="M225,236h-26c-0.6,0-1-0.4-1-1v-16c0-0.6,0.4-1,1-1s1,0.4,1,1v15h24v-18h-25c-0.6,0-1-0.4-1-1s0.4-1,1-1h26
		c0.6,0,1,0.4,1,1v20C226,235.6,225.6,236,225,236z"/>
</g>
<g>
	<path fill="#444444" d="M212,228c-0.3,0-0.5-0.1-0.7-0.3l-8-8c-0.4-0.4-0.4-1,0-1.4c0.4-0.4,1-0.4,1.4,0l7.3,7.3l7.3-7.3
		c0.4-0.4,1-0.4,1.4,0c0.4,0.4,0.4,1,0,1.4l-8,8C212.5,227.9,212.3,228,212,228z"/>
</g>
<g>
	<path fill="#444444" d="M220,232c-0.3,0-0.5-0.1-0.7-0.3l-3-3c-0.4-0.4-0.4-1,0-1.4c0.4-0.4,1-0.4,1.4,0l3,3c0.4,0.4,0.4,1,0,1.4
		C220.5,231.9,220.3,232,220,232z"/>
</g>
<g>
	<path fill="#444444" d="M204,232c-0.3,0-0.5-0.1-0.7-0.3c-0.4-0.4-0.4-1,0-1.4l3-3c0.4-0.4,1-0.4,1.4,0c0.4,0.4,0.4,1,0,1.4l-3,3
		C204.5,231.9,204.3,232,204,232z"/>
</g>
<g>
	<g>
		<path fill="#444444" d="M287,239c-3.7,0-7.3-1.5-9.9-4.1c-4.3-4.3-5.3-10.9-2.6-16.3c0.3-0.5,0.9-0.7,1.3-0.4
			c0.5,0.3,0.7,0.9,0.4,1.3c-2.4,4.7-1.5,10.3,2.2,14c2.3,2.3,5.3,3.5,8.5,3.5s6.2-1.2,8.5-3.5c4.7-4.7,4.7-12.3,0-17
			c-2.3-2.3-5.3-3.5-8.5-3.5c-3.2,0-6.2,1.2-8.5,3.5c-0.4,0.4-1,0.4-1.4,0c-0.4-0.4-0.4-1,0-1.4c2.6-2.6,6.2-4.1,9.9-4.1
			c3.7,0,7.3,1.5,9.9,4.1c5.5,5.5,5.5,14.3,0,19.8C294.3,237.5,290.7,239,287,239z"/>
	</g>
	<g>
		<path fill="#444444" d="M292,230c-0.2,0-0.4-0.1-0.6-0.2l-5-4c-0.2-0.2-0.4-0.5-0.4-0.8v-8c0-0.6,0.4-1,1-1c0.6,0,1,0.4,1,1v7.5
			l4.6,3.7c0.4,0.3,0.5,1,0.2,1.4C292.6,229.9,292.3,230,292,230z"/>
	</g>
</g>
<g>
	<path fill="#444444" d="M375,212h-26c-0.6,0-1,0.4-1,1v4c0,0.6,0.4,1,1,1h22v18h-18v-15c0-0.6-0.4-1-1-1c-0.6,0-1,0.4-1,1v16
		c0,0.6,0.4,1,1,1h20c0.6,0,1-0.4,1-1v-19h2c0.6,0,1-0.4,1-1v-4C376,212.4,375.6,212,375,212z M374,216h-24v-2h24V216z"/>
	<path fill="#444444" d="M368,226c0.6,0,1-0.4,1-1v-4c0-0.6-0.4-1-1-1h-12c-0.6,0-1,0.4-1,1v4c0,0.6,0.4,1,1,1H368z M357,222h10v2
		h-10V222z"/>
</g>
<g>
	<path fill="#444444" d="M446,222h-1v-3c0-0.6-0.4-1-1-1h-19c-0.6,0-1,0.4-1,1s0.4,1,1,1h18v12c0,2.8-2.2,5-5,5h-7c-2.8,0-5-2.2-5-5
		v-9c0-0.6-0.4-1-1-1s-1,0.4-1,1v9c0,3.9,3.1,7,7,7h7c3.9,0,7-3.1,7-7v-1h1c2.2,0,4-1.8,4-4v-1C450,223.8,448.2,222,446,222z
		 M448,227c0,1.1-0.9,2-2,2h-1v-5h1c1.1,0,2,0.9,2,2V227z"/>
	<path fill="#444444" d="M430,217c0.6,0,1-0.4,1-1v-2c0-0.6-0.4-1-1-1s-1,0.4-1,1v2C429,216.6,429.4,217,430,217z"/>
	<path fill="#444444" d="M434,217c0.6,0,1-0.4,1-1v-4c0-0.6-0.4-1-1-1s-1,0.4-1,1v4C433,216.6,433.4,217,434,217z"/>
	<path fill="#444444" d="M438,217c0.6,0,1-0.4,1-1v-2c0-0.6-0.4-1-1-1s-1,0.4-1,1v2C437,216.6,437.4,217,438,217z"/>
</g>
<path fill="#444444" d="M150.7,286.8c-0.1-0.5-0.5-0.8-1-0.8c0,0,0,0,0,0c-5.3,0-18.1,0.9-23.2,8.4c-2.7,3.9-2.9,8.9-0.7,15
	c0,0,0.1,0.1,0.1,0.1c-0.8,2-1.1,3.3-1.1,3.3c-0.1,0.5,0.2,1.1,0.8,1.2c0.1,0,0.1,0,0.2,0c0.5,0,0.9-0.3,1-0.8
	c0-0.1,2.6-10.4,11.6-16.4c0.5-0.3,0.6-0.9,0.3-1.4c-0.3-0.5-0.9-0.6-1.4-0.3c-5.1,3.4-8.3,8-10.1,11.7c-1.3-4.6-1-8.4,1.1-11.3
	c4-5.8,13.5-7.2,19.2-7.4c-1.2,1.8-2.6,5.1-2.6,10.9c0,3.1-0.9,5.5-2.6,7.1c-2.8,2.6-7.3,2.8-10.7,2.6c-0.6,0-1,0.4-1.1,0.9
	c0,0.5,0.4,1,0.9,1.1c0.7,0.1,1.4,0.1,2.1,0.1c3.4,0,7.3-0.7,10.1-3.2c2.2-2,3.3-4.9,3.3-8.6c0-9.1,3.4-11.1,3.4-11.1
	C150.6,287.7,150.8,287.2,150.7,286.8z"/>
<path fill="#444444" d="M225,297h-6v-10c0-0.6-0.4-1-1-1h-12c-0.6,0-1,0.4-1,1v10h-6c-0.6,0-1,0.4-1,1s0.4,1,1,1h6v2
	c0,0.6,0.4,1,1,1h12c0.6,0,1-0.4,1-1v-2h5v10h-5v-1c0-0.6-0.4-1-1-1h-12c-0.6,0-1,0.4-1,1v1h-5v-7c0-0.6-0.4-1-1-1s-1,0.4-1,1v8
	c0,0.6,0.4,1,1,1h6v2c0,0.6,0.4,1,1,1h12c0.6,0,1-0.4,1-1v-2h6c0.6,0,1-0.4,1-1v-12C226,297.4,225.6,297,225,297z M217,300h-10v-12
	h10V300z M217,312h-10v-3h10V312z"/>
<path fill="#444444" d="M300.8,287.7c0.3-0.3,0.3-0.7,0.2-1.1c-0.2-0.4-0.5-0.6-0.9-0.6h-18c-0.6,0-1,0.4-1,1s0.4,1,1,1h15.8
	l-2.9,3.4c-2.6-1.2-5.7-0.9-8,0.8c-2.1,1.6-4.9,1.6-7.1,0l-3.7-4.2h1.8c0.6,0,1-0.4,1-1s-0.4-1-1-1h-4c-0.4,0-0.7,0.2-0.9,0.6
	c-0.2,0.4-0.1,0.8,0.2,1.1l12.8,14.7v9.6h-4c-0.6,0-1,0.4-1,1s0.4,1,1,1h10c0.6,0,1-0.4,1-1s-0.4-1-1-1h-4v-9.6L300.8,287.7z
	 M283.4,295.4c1.7,0,3.3-0.5,4.7-1.6c1.6-1.2,3.6-1.4,5.4-0.9l-6.5,7.5l-4.5-5.2C282.8,295.3,283.1,295.4,283.4,295.4z"/>
<g>
	<g>
		<path fill="#444444" d="M362,310c-0.3,0-0.5-0.1-0.7-0.3l-9-9c-0.4-0.4-0.4-1,0-1.4c0.4-0.4,1-0.4,1.4,0l7.3,7.3V287
			c0-0.6,0.4-1,1-1c0.6,0,1,0.4,1,1v22c0,0.4-0.2,0.8-0.6,0.9C362.3,310,362.1,310,362,310z"/>
	</g>
	<g>
		<path fill="#444444" d="M366,306c-0.3,0-0.5-0.1-0.7-0.3c-0.4-0.4-0.4-1,0-1.4l5-5c0.4-0.4,1-0.4,1.4,0c0.4,0.4,0.4,1,0,1.4l-5,5
			C366.5,305.9,366.3,306,366,306z"/>
	</g>
</g>
<g>
	<path fill="#444444" d="M375,314h-26c-0.6,0-1-0.4-1-1v-7c0-0.6,0.4-1,1-1c0.6,0,1,0.4,1,1v6h24v-6c0-0.6,0.4-1,1-1
		c0.6,0,1,0.4,1,1v7C376,313.6,375.6,314,375,314z"/>
</g>
<g>
	<g>
		<path fill="#444444" d="M437,314c-0.6,0-1-0.4-1-1v-22c0-0.4,0.2-0.8,0.6-0.9c0.4-0.2,0.8-0.1,1.1,0.2l9,9c0.4,0.4,0.4,1,0,1.4
			c-0.4,0.4-1,0.4-1.4,0l-7.3-7.3V313C438,313.6,437.6,314,437,314z"/>
	</g>
	<g>
		<path fill="#444444" d="M428,301c-0.3,0-0.5-0.1-0.7-0.3c-0.4-0.4-0.4-1,0-1.4l5-5c0.4-0.4,1-0.4,1.4,0c0.4,0.4,0.4,1,0,1.4l-5,5
			C428.5,300.9,428.3,301,428,301z"/>
	</g>
</g>
<g>
	<path fill="#444444" d="M450,295c-0.6,0-1-0.4-1-1v-6h-24v6c0,0.6-0.4,1-1,1s-1-0.4-1-1v-7c0-0.6,0.4-1,1-1h26c0.6,0,1,0.4,1,1v7
		C451,294.6,450.6,295,450,295z"/>
</g>
<g>
	<path fill="#444444" d="M520,314c-0.2,0-0.3,0-0.5-0.1l-7.6-4.2l-7.6,4.2c-0.3,0.2-0.7,0.2-1.1-0.1c-0.3-0.2-0.5-0.6-0.4-1l1.5-8.9
		l-3.2-3.2c-0.4-0.4-0.4-1,0-1.4c0.4-0.4,1-0.4,1.4,0l3.5,3.6c0.2,0.2,0.3,0.5,0.3,0.9l-1.2,7.4l6.2-3.4c0.3-0.2,0.7-0.2,1,0
		l6.2,3.4l-1.2-7.4c-0.1-0.3,0-0.6,0.3-0.9l5.1-5.3l-7.1-1.1c-0.3-0.1-0.6-0.3-0.8-0.6l-3.1-6.6l-3.1,6.6c-0.1,0.3-0.4,0.5-0.8,0.6
		l-9,1.4c-0.6,0.1-1.1-0.3-1.1-0.8c-0.1-0.5,0.3-1.1,0.8-1.1l8.5-1.3l3.8-8.1c0.2-0.4,0.5-0.6,0.9-0.6c0.4,0,0.7,0.2,0.9,0.6
		l3.8,8.1l8.5,1.3c0.4,0.1,0.7,0.3,0.8,0.7c0.1,0.4,0,0.7-0.2,1l-6.1,6.3l1.5,8.9c0.1,0.4-0.1,0.8-0.4,1
		C520.4,313.9,520.2,314,520,314z"/>
</g>
<g>
	<g>
		<path fill="#444444" d="M587,311c-0.2,0-0.5-0.1-0.6-0.2c-0.2-0.2-5.9-5.1-8.3-10.4c-0.2-0.5,0-1.1,0.5-1.3c0.5-0.2,1.1,0,1.3,0.5
			c1.7,3.9,5.6,7.7,7.1,9.1c2.7-2.6,8-8.6,8-12.4c0-4.5-3.6-8.2-8-8.2c-4.4,0-8,3.7-8,8.2c0,0.6-0.4,1-1,1c-0.6,0-1-0.4-1-1
			c0-5.6,4.5-10.2,10-10.2c5.5,0,10,4.6,10,10.2c0,5.9-8.9,14.2-9.3,14.5C587.5,310.9,587.2,311,587,311z"/>
	</g>
	<g>
		<path fill="#444444" d="M587,300c-2.2,0-4-1.8-4-4s1.8-4,4-4c2.2,0,4,1.8,4,4S589.2,300,587,300z M587,294c-1.1,0-2,0.9-2,2
			s0.9,2,2,2c1.1,0,2-0.9,2-2S588.1,294,587,294z"/>
	</g>
	<g>
		<path fill="#444444" d="M600,314h-26c-0.4,0-0.7-0.2-0.9-0.5c-0.2-0.3-0.2-0.7,0-1l4-7c0.3-0.5,0.9-0.6,1.4-0.4
			c0.5,0.3,0.6,0.9,0.4,1.4l-3.1,5.5h22.6l-3.1-5.5c-0.3-0.5-0.1-1.1,0.4-1.4c0.5-0.3,1.1-0.1,1.4,0.4l4,7c0.2,0.3,0.2,0.7,0,1
			C600.7,313.8,600.4,314,600,314z"/>
	</g>
</g>
<g>
	<g>
		<path fill="#444444" d="M662,313c-0.2,0-0.4-0.1-0.6-0.2c-0.5-0.4-13.4-10.4-13.4-18.8c0-4.4,3.6-8,8-8c4.4,0,8,3.6,8,8
			c0,0.6-0.4,1-1,1c-0.6,0-1-0.4-1-1c0-3.3-2.7-6-6-6s-6,2.7-6,6c0,6.5,9.5,14.7,12,16.7c2.5-2.1,12-10.3,12-16.7c0-3.3-2.7-6-6-6
			c-0.9,0-1.8,0.2-2.6,0.6c-0.5,0.2-1.1,0-1.3-0.5c-0.2-0.5,0-1.1,0.5-1.3c1.1-0.5,2.2-0.8,3.4-0.8c4.4,0,8,3.6,8,8
			c0,8.4-12.8,18.4-13.4,18.8C662.4,312.9,662.2,313,662,313z"/>
	</g>
</g>
<g>
	<g>
		<path fill="#444444" d="M129,379c-0.3,0-0.5-0.1-0.7-0.3l-5-5c-0.4-0.4-0.4-1,0-1.4c0.4-0.4,1-0.4,1.4,0l5,5c0.4,0.4,0.4,1,0,1.4
			C129.5,378.9,129.3,379,129,379z"/>
	</g>
	<g>
		<path fill="#444444" d="M133,383c-0.3,0-0.5-0.1-0.7-0.3c-0.4-0.4-0.4-1,0-1.4l16-16c0.4-0.4,1-0.4,1.4,0c0.4,0.4,0.4,1,0,1.4
			l-16,16C133.5,382.9,133.3,383,133,383z"/>
	</g>
</g>
<g>
	<path fill="#444444" d="M207.3,371.7c0.2,0.2,0.5,0.3,0.7,0.3c0.3,0,0.5-0.1,0.7-0.3c0.4-0.4,0.4-1,0-1.4l-8-8
		c-0.4-0.4-1-0.4-1.4,0c-0.4,0.4-0.4,1,0,1.4L207.3,371.7z"/>
	<path fill="#444444" d="M213.4,375l11.3-11.3c0.4-0.4,0.4-1,0-1.4c-0.4-0.4-1-0.5-1.4-0.1l-12,11.9H211v0.3l-11.9,12
		c-0.4,0.4-0.3,1,0.1,1.4c0.2,0.2,0.5,0.3,0.7,0.3c0.3,0,0.5-0.1,0.7-0.3l11.3-11.3l11.3,11.3c0.2,0.2,0.5,0.3,0.7,0.3
		c0.3,0,0.5-0.1,0.7-0.3c0.4-0.4,0.4-1,0-1.4L213.4,375z"/>
</g>
<path fill="#444444" d="M292.9,374.3c1.3-1.4,2.1-3.3,2.1-5.3c0-4.4-3.6-8-8-8s-8,3.6-8,8s3.6,8,8,8c1.6,0,3-0.5,4.2-1.2
	c4.3,1.6,7.3,5.6,7.7,10.2H275c0.3-3.1,1.7-6,4.1-8.1c0.4-0.4,0.5-1,0.1-1.4c-0.4-0.4-1-0.5-1.4-0.1c-3.1,2.7-4.8,6.5-4.8,10.6
	c0,0.6,0.4,1,1,1h26c0.6,0,1-0.4,1-1C301,381.5,297.8,376.6,292.9,374.3z M281,369c0-3.3,2.7-6,6-6s6,2.7,6,6s-2.7,6-6,6
	S281,372.3,281,369z"/>
<path fill="#444444" d="M376,375c0-3.1-1-6.1-3-8.6c0,0,0,0,0,0c-2.7-3.4-6.7-5.4-11-5.4c-4.3,0-8.3,2-11,5.4
	c-0.3,0.4-0.3,0.9,0,1.2c2.7,3.4,6.7,5.4,11,5.4c3.9,0,7.5-1.6,10.1-4.4c1.2,1.9,1.9,4.1,1.9,6.4s-0.6,4.5-1.9,6.4
	c-2.6-2.8-6.3-4.4-10.1-4.4s-7.5,1.6-10.1,4.4c-1.2-1.9-1.9-4.1-1.9-6.4c0-1.2,0.2-2.5,0.6-3.7c0.2-0.5-0.1-1.1-0.6-1.3
	c-0.5-0.2-1.1,0.1-1.3,0.6c-0.5,1.4-0.7,2.8-0.7,4.3c0,3.1,1,6.1,3,8.6c0,0,0,0,0,0c2.7,3.4,6.7,5.4,11,5.4c4.3,0,8.3-2,11-5.4
	c0,0,0,0,0,0C375,381.1,376,378.1,376,375z M362,371c-3.4,0-6.6-1.4-8.9-4c2.3-2.6,5.5-4,8.9-4s6.6,1.4,8.9,4
	C368.6,369.6,365.4,371,362,371z M362,387c-3.4,0-6.6-1.4-8.9-4c2.3-2.6,5.5-4,8.9-4s6.6,1.4,8.9,4C368.6,385.6,365.4,387,362,387z"
	/>
<path fill="#444444" d="M449.2,362.8c-1-1-2.2-1.6-3.5-1.8c-2-0.3-3.9,0.4-5.3,1.8c-0.4,0.4-0.4,1,0,1.4c0,0,0,0,0.1,0
	c0,0,0,0,0,0.1l2.9,2.9l-14.9,14.9l-2.3-2.3l12.6-12.6c0.4-0.4,0.4-1,0-1.4c-0.4-0.4-1-0.4-1.4,0L424,379.1l-0.7,0.7
	c-0.1,0.1-0.2,0.2-0.2,0.3c0,0.1-0.1,0.3-0.1,0.4v7.4c0,0.6,0.4,1,1,1h7.4c0.3,0,0.5-0.1,0.7-0.3l0.7-0.7c0,0,0,0,0,0c0,0,0,0,0,0
	l16.3-16.3C451.6,369.2,451.6,365.3,449.2,362.8z M445.4,363c0.9,0.1,1.7,0.5,2.4,1.2c1.4,1.4,1.6,3.6,0.6,5.2l-5.8-5.8
	C443.4,363.1,444.4,362.9,445.4,363z M425,387v-5.5l2.7,2.7c0,0,0,0,0,0c0,0,0,0,0,0l2.7,2.7H425z M432.2,385.8l-2.3-2.3l14.9-14.9
	l2.3,2.3L432.2,385.8z"/>
<g>
	<g>
		<path fill="#444444" d="M521,389h-22c-0.6,0-1-0.4-1-1v-18c0-0.6,0.4-1,1-1c0.6,0,1,0.4,1,1v17h20v-20h-21c-0.6,0-1-0.4-1-1
			s0.4-1,1-1h22c0.6,0,1,0.4,1,1v22C522,388.6,521.6,389,521,389z"/>
	</g>
	<g>
		<path fill="#444444" d="M525,381c-0.6,0-1-0.4-1-1v-17h-17c-0.6,0-1-0.4-1-1s0.4-1,1-1h18c0.6,0,1,0.4,1,1v18
			C526,380.6,525.6,381,525,381z"/>
	</g>
</g>
<g>
	<path fill="#444444" d="M587,389c-3.7,0-7.3-1.5-9.9-4.1c-4.3-4.3-5.3-10.9-2.6-16.3c0.3-0.5,0.9-0.7,1.3-0.4
		c0.5,0.3,0.7,0.9,0.4,1.3c-2.4,4.7-1.5,10.3,2.2,14c2.3,2.3,5.3,3.5,8.5,3.5c3.2,0,6.2-1.2,8.5-3.5s3.5-5.3,3.5-8.5
		s-1.2-6.2-3.5-8.5c-4.7-4.7-12.3-4.7-17,0c-0.4,0.4-1,0.4-1.4,0c-0.4-0.4-0.4-1,0-1.4c5.5-5.5,14.3-5.5,19.8,0
		c2.6,2.6,4.1,6.2,4.1,9.9s-1.5,7.3-4.1,9.9C594.3,387.5,590.7,389,587,389z"/>
</g>
<g>
	<path fill="#444444" d="M581.3,381.7c-0.3,0-0.5-0.1-0.7-0.3c-0.3-0.3-0.4-0.6-0.2-1l2.7-8.7c0.1-0.3,0.3-0.6,0.7-0.7l8.7-2.7
		c0.4-0.1,0.7,0,1,0.2c0.3,0.3,0.4,0.6,0.2,1l-2.7,8.7c-0.1,0.3-0.3,0.6-0.7,0.7l-8.7,2.7C581.5,381.6,581.4,381.7,581.3,381.7z
		 M584.8,372.8l-1.9,6.3l6.3-1.9l1.9-6.3L584.8,372.8z"/>
</g>
<g>
	<path fill="#444444" d="M212,464c-3.7,0-7.3-1.5-9.9-4.1c-4.3-4.3-5.3-10.9-2.6-16.3c0.3-0.5,0.9-0.7,1.3-0.4
		c0.5,0.3,0.7,0.9,0.4,1.3c-2.4,4.7-1.5,10.3,2.2,14c2.3,2.3,5.3,3.5,8.5,3.5c3.2,0,6.2-1.2,8.5-3.5s3.5-5.3,3.5-8.5
		c0-3.2-1.2-6.2-3.5-8.5c-2.3-2.3-5.3-3.5-8.5-3.5c-3.2,0-6.2,1.2-8.5,3.5c-0.4,0.4-1,0.4-1.4,0c-0.4-0.4-0.4-1,0-1.4
		c2.6-2.6,6.2-4.1,9.9-4.1s7.3,1.5,9.9,4.1c2.6,2.6,4.1,6.2,4.1,9.9c0,3.7-1.5,7.3-4.1,9.9C219.3,462.5,215.7,464,212,464z"/>
</g>
<g>
	<path fill="#444444" d="M217,451h-10c-0.6,0-1-0.4-1-1s0.4-1,1-1h10c0.6,0,1,0.4,1,1S217.6,451,217,451z"/>
</g>
<g>
	<path fill="#444444" d="M287,464c-3.7,0-7.3-1.5-9.9-4.1c-4.3-4.3-5.3-10.9-2.6-16.3c0.3-0.5,0.9-0.7,1.3-0.4
		c0.5,0.3,0.7,0.9,0.4,1.3c-2.4,4.7-1.5,10.3,2.2,14c2.3,2.3,5.3,3.5,8.5,3.5s6.2-1.2,8.5-3.5c2.3-2.3,3.5-5.3,3.5-8.5
		c0-3.2-1.2-6.2-3.5-8.5c-2.3-2.3-5.3-3.5-8.5-3.5c-3.2,0-6.2,1.2-8.5,3.5c-0.4,0.4-1,0.4-1.4,0c-0.4-0.4-0.4-1,0-1.4
		c2.6-2.6,6.2-4.1,9.9-4.1c3.7,0,7.3,1.5,9.9,4.1c2.6,2.6,4.1,6.2,4.1,9.9c0,3.7-1.5,7.3-4.1,9.9C294.3,462.5,290.7,464,287,464z"/>
</g>
<g>
	<path fill="#444444" d="M287,456c-0.6,0-1-0.4-1-1v-10c0-0.6,0.4-1,1-1c0.6,0,1,0.4,1,1v10C288,455.6,287.6,456,287,456z"/>
</g>
<g>
	<path fill="#444444" d="M292,451h-10c-0.6,0-1-0.4-1-1s0.4-1,1-1h10c0.6,0,1,0.4,1,1S292.6,451,292,451z"/>
</g>
<path fill="#444444" d="M665.4,373.8l2.4-3.2c0.1-0.2,0.2-0.4,0.2-0.6v-8c0-0.6-0.4-1-1-1h-10c-0.6,0-1,0.4-1,1s0.4,1,1,1h9v6.7
	l-2.5,3.3h-3l-2.5-3.3V366c0-0.6-0.4-1-1-1c-0.6,0-1,0.4-1,1v4c0,0.2,0.1,0.4,0.2,0.6l2.4,3.2c-2.7,1.3-4.6,4-4.6,7.2
	c0,4.4,3.6,8,8,8c4.4,0,8-3.6,8-8C670,377.8,668.1,375.1,665.4,373.8z M662,387c-3.3,0-6-2.7-6-6s2.7-6,6-6s6,2.7,6,6
	S665.3,387,662,387z"/>
<g>
	<g>
		<path fill="#444444" d="M437,459c-4.3,0-8.3-1.8-11.4-5.1c-0.4-0.4-0.4-1,0-1.4c0.4-0.4,1-0.4,1.4,0c2.7,2.9,6.2,4.5,9.9,4.5
			c4.8,0,9.1-2.6,11.8-7c-2.7-4.4-7.1-7-11.8-7c-4.9,0-9.5,2.8-12.1,7.5c-0.3,0.5-0.9,0.6-1.4,0.4c-0.5-0.3-0.6-0.9-0.4-1.4
			c3-5.3,8.2-8.5,13.9-8.5s10.9,3.2,13.9,8.5c0.2,0.3,0.2,0.7,0,1C447.9,455.8,442.7,459,437,459z"/>
	</g>
	<g>
		<path fill="#444444" d="M437,455c-2.8,0-5-2.2-5-5s2.2-5,5-5c2.8,0,5,2.2,5,5S439.8,455,437,455z M437,447c-1.7,0-3,1.3-3,3
			s1.3,3,3,3s3-1.3,3-3S438.7,447,437,447z"/>
	</g>
</g>
<g>
	<path fill="#444444" d="M598,447h-3v-2.7c0-4.4-3.6-8-8-8c-4.4,0-8,3.6-8,8v2.7h-3c-0.6,0-1,0.4-1,1s0.4,1,1,1h21v12h-20v-9
		c0-0.6-0.4-1-1-1c-0.6,0-1,0.4-1,1v10c0,0.6,0.4,1,1,1h22c0.6,0,1-0.4,1-1v-14C599,447.4,598.6,447,598,447z M581,444.3
		c0-3.3,2.7-6,6-6s6,2.7,6,6v2.7h-12V444.3z"/>
	<path fill="#444444" d="M591,455c0-2.2-1.8-4-4-4c-2.2,0-4,1.8-4,4s1.8,4,4,4C589.2,459,591,457.2,591,455z M585,455
		c0-1.1,0.9-2,2-2c1.1,0,2,0.9,2,2s-0.9,2-2,2C585.9,457,585,456.1,585,455z"/>
</g>
<g>
	<path fill="#444444" d="M675,462h-26c-0.6,0-1-0.4-1-1v-18c0-0.6,0.4-1,1-1c0.6,0,1,0.4,1,1v17h24v-16h-11c-0.3,0-0.5-0.1-0.7-0.3
		l-3.7-3.7H649c-0.6,0-1-0.4-1-1s0.4-1,1-1h10c0.3,0,0.5,0.1,0.7,0.3l3.7,3.7H675c0.6,0,1,0.4,1,1v18C676,461.6,675.6,462,675,462z"
		/>
</g>
<path fill="#444444" d="M523.9,444.6c-0.1-0.1-0.1-0.2-0.2-0.3l-8-8c-0.1-0.1-0.2-0.2-0.3-0.2c-0.1-0.1-0.3-0.1-0.4-0.1h-14
	c-0.6,0-1,0.4-1,1s0.4,1,1,1h13v7c0,0.6,0.4,1,1,1h7v16h-20v-21c0-0.6-0.4-1-1-1c-0.6,0-1,0.4-1,1v22c0,0.6,0.4,1,1,1h22
	c0.6,0,1-0.4,1-1v-18C524,444.9,524,444.7,523.9,444.6z M516,439.4l4.6,4.6H516V439.4z"/>
<path fill="#444444" d="M369.3,444l5.4-6.3c0.3-0.3,0.3-0.7,0.1-1.1c-0.2-0.4-0.5-0.6-0.9-0.6h-24c-0.6,0-1,0.4-1,1s0.4,1,1,1h21.8
	l-4.6,5.3c-0.3,0.4-0.3,0.9,0,1.3l4.6,5.3H353v-4v-5c0-0.6-0.4-1-1-1c-0.6,0-1,0.4-1,1v5v5v11h-1c-0.6,0-1,0.4-1,1s0.4,1,1,1h4
	c0.6,0,1-0.4,1-1s-0.4-1-1-1h-1v-10h21c0.4,0,0.7-0.2,0.9-0.6c0.2-0.4,0.1-0.8-0.1-1.1L369.3,444z"/>
<g>
	<path fill="#444444" d="M149,440h-6.4l-1.7-3.4c-0.2-0.3-0.5-0.6-0.9-0.6h-6c-0.4,0-0.7,0.2-0.9,0.6l-1.7,3.4H125c-0.6,0-1,0.4-1,1
		s0.4,1,1,1h20v20h-16v-17c0-0.6-0.4-1-1-1s-1,0.4-1,1v18c0,0.6,0.4,1,1,1h18c0.6,0,1-0.4,1-1v-21h2c0.6,0,1-0.4,1-1
		S149.6,440,149,440z M134.6,438h4.8l1,2h-6.8L134.6,438z"/>
	<path fill="#444444" d="M135,458v-10c0-0.6-0.4-1-1-1s-1,0.4-1,1v10c0,0.6,0.4,1,1,1S135,458.6,135,458z"/>
	<path fill="#444444" d="M141,458v-10c0-0.6-0.4-1-1-1s-1,0.4-1,1v10c0,0.6,0.4,1,1,1S141,458.6,141,458z"/>
</g>
</svg>
